# xmcd CD database file
#
# Track frame offsets:
#	150
#	19885
#	36093
#
# Disc length: 743 seconds
#
# Revision: 0
# Processed by: cddbd v1.5.1PL2 Copyright (c) Steve Scherf et al.
# Submitted via: CD2WAV32(JP) R3.22
#
DISCID=1c02e503
DTITLE=大事MANブラザーズバンド - 賽は投げられた
DYEAR=1993
DGENRE=Pop
TTITLE0=賽は投げられた
TTITLE1=おやじと話す
TTITLE2=賽は投げられた（オリジナル・カラオケ）
EXTD=
EXTT0=
EXTT1=
EXTT2=
PLAYORDER=
